<?xml version="1.0" encoding="UTF-8" standalone="no"?>
<svg
   xmlns:dc="http://purl.org/dc/elements/1.1/"
   xmlns:cc="http://creativecommons.org/ns#"
   xmlns:rdf="http://www.w3.org/1999/02/22-rdf-syntax-ns#"
   xmlns:svg="http://www.w3.org/2000/svg"
   xmlns="http://www.w3.org/2000/svg"
   xmlns:sodipodi="http://sodipodi.sourceforge.net/DTD/sodipodi-0.dtd"
   xmlns:inkscape="http://www.inkscape.org/namespaces/inkscape"
   version="1.1"
   id="svg2"
   xml:space="preserve"
   width="449.01468"
   height="349.18668"
   viewBox="0 0 449.01468 349.18668"
   sodipodi:docname="dv.ai"><metadata
     id="metadata8"><rdf:RDF><cc:Work
         rdf:about=""><dc:format>image/svg+xml</dc:format><dc:type
           rdf:resource="http://purl.org/dc/dcmitype/StillImage" /></cc:Work></rdf:RDF></metadata><defs
     id="defs6"><clipPath
       clipPathUnits="userSpaceOnUse"
       id="clipPath20"><path
         d="M 0,261.89 H 336.761 V 0 H 0 Z"
         id="path18" /></clipPath></defs><sodipodi:namedview
     pagecolor="#ffffff"
     bordercolor="#666666"
     borderopacity="1"
     objecttolerance="10"
     gridtolerance="10"
     guidetolerance="10"
     inkscape:pageopacity="0"
     inkscape:pageshadow="2"
     inkscape:window-width="640"
     inkscape:window-height="480"
     id="namedview4" /><g
     id="g10"
     inkscape:groupmode="layer"
     inkscape:label="dv"
     transform="matrix(1.3333333,0,0,-1.3333333,0,349.18667)"><path
       d="M 0,0 H 336.761 V 261.889 H 0 Z"
       style="fill:#ffffff;fill-opacity:1;fill-rule:nonzero;stroke:none"
       id="path12" /><g
       id="g14"><g
         id="g16"
         clip-path="url(#clipPath20)"><g
           id="g22"
           transform="translate(251.001,173.1084)"><path
             d="m 0,0 c -5.305,-6.459 -51.321,-62.49 -61.743,-75.181 -4.67,5.686 -34.076,41.492 -37.387,45.522 h -25.043 c 8.678,-10.567 48.326,-59.725 54.647,-66.54 5.114,-5.513 11.714,-4.771 16.4,1.017 10.437,12.893 59.316,72.225 68.796,83.767 C 23.752,-1.574 8.082,9.84 0,0"
             style="fill:#59595c;fill-opacity:1;fill-rule:nonzero;stroke:none"
             id="path24" /></g><g
           id="g26"
           transform="translate(142.8428,209.8989)"><path
             d="m 0,0 c -12.84,3.595 -26.413,2.758 -39.594,2.758 h -33.724 c -5.879,0 -10.782,-4.903 -10.782,-10.78 v -73.852 h 21.562 v 63.104 c 21.558,0 22.588,-0.082 44.044,-0.082 27.975,0 51.408,-21.204 52.124,-49.446 0.106,-4.227 -0.368,-8.247 -1.326,-12.04 6.783,-8.024 9.398,-11.979 14.95,-18.557 3.949,8.691 7.682,20.468 7.937,30.597 C 56.046,-34.592 30.995,-8.676 0,0"
             style="fill:#59595c;fill-opacity:1;fill-rule:nonzero;stroke:none"
             id="path28" /></g></g></g></g></svg>
